<svg xmlns="http://www.w3.org/2000/svg" viewBox="0 0 1.99 2.03"><defs><style>.cls-1{fill:#2e9edd;}.cls-2{fill:#fff;}.cls-3{fill:#f0f0f0;}.cls-4{fill:#38a5e8;}.cls-5{fill:#42aefa;}.cls-6{fill:#42b1ff;}.cls-7{fill:#b3b3b3;}.cls-8{fill:#bdbdbd;}.cls-9{fill:#cfcfcf;}.cls-10{fill:#d4d4d4;}.cls-11{fill:#ffa61c;}.cls-12{fill:#ffb026;}.cls-13{fill:#ffc230;}.cls-14{fill:#ffc730;}</style></defs><title>book_series_color</title><g id="Layer_2" data-name="Layer 2"><g id="Layer_1-2" data-name="Layer 1"><path class="cls-1" d="M.13,1.61a.2.2,0,0,1,0-.19l0,0a.12.12,0,0,0,0,.09.22.22,0,0,0,0,.15l0,0,0,0Z"/><path class="cls-2" d="M1,1.77l0-.05H1l-.11,0L.53,1.55h0L.33,1.48.14,1.41a.2.2,0,0,0,0,.19l0,0h0l.49.17L1.05,2C1,1.91,1,1.81,1,1.77Z"/><path class="cls-3" d="M1.89,1.34v0a.13.13,0,0,1,0-.07l0,0-.12.08,0,0h0l-.4.26,0,0-.16.1a.16.16,0,0,1-.1,0l0,.05s0,.14.06.18l.87-.57Z"/><path class="cls-4" d="M2,1.37a0,0,0,0,1,0,0L1.12,2A.16.16,0,0,1,1,2L.62,1.84l-.5-.18,0,0h0l0,0h0l0,0a.22.22,0,0,1,0-.15.12.12,0,0,1,0-.09l0,0,.19.07.16.06h0l.36.13.11,0H1a.16.16,0,0,0,.1,0l.16-.1,0,0,.4-.26h0l0,0,.12-.08.08,0a0,0,0,0,0,0,0s0,0,0,0v0H2l-.24.15,0,0h0l-.49.32-.05,0h0l-.06,0H1l-.07,0L.57,1.52H.49L.22,1.4l-.06,0h0l0,0A.2.2,0,0,0,0,1.49c0,.05,0,.17.07.2L1,2a.16.16,0,0,0,.12,0L2,1.45a0,0,0,0,0,0,0S2,1.4,2,1.37Z"/><path class="cls-5" d="M2,1,1.19.77H1.13L.07,1.34l0,0h0l.06,0,.27.1H.57l.35.13.07,0h.07l.06,0h0l.05,0,.49-.32h0l0,0L2,1.1H2v0S2,1,2,1Z"/><path class="cls-6" d="M2,1.34l-.08,0v0l0,0L1.05,2,.67,1.82.18,1.64h0l0,0h0l.5.18L1,2a.16.16,0,0,0,.12,0L2,1.4a0,0,0,0,0,0,0S2,1.35,2,1.34Z"/><path class="cls-7" d="M.13,1.25a.2.2,0,0,1,0-.19l0,0a.12.12,0,0,0,0,.09.22.22,0,0,0,0,.15l0,0,0,0Z"/><path class="cls-2" d="M1,1.41l0-.05H1l-.11,0L.53,1.19h0L.33,1.12.14,1.05a.2.2,0,0,0,0,.19l0,0h0l.49.17.38.13C1,1.56,1,1.45,1,1.41Z"/><path class="cls-3" d="M1.89,1V1a.13.13,0,0,1,0-.07l0,0L1.77.92l0,0h0l-.4.26,0,0-.16.1a.16.16,0,0,1-.1,0l0,.05s0,.14.06.18L1.92,1Z"/><path class="cls-8" d="M2,1A0,0,0,0,1,2,1l-.85.56a.16.16,0,0,1-.12,0L.62,1.48.13,1.3l0,0h0l0,0h0l0,0a.22.22,0,0,1,0-.15A.12.12,0,0,1,.1,1l0,0,.19.07.16.06h0l.36.13.11,0H1a.16.16,0,0,0,.1,0l.16-.1,0,0,.4-.26h0l0,0L1.89.84,2,.79a0,0,0,0,0,0,0s0,0,0,0v0H2L1.73.9l0,0h0l-.49.32-.05,0h0l-.06,0H1l-.07,0L.57,1.16H.49L.22,1,.16,1h0l0,0A.2.2,0,0,0,0,1.13c0,.05,0,.17.07.2L1,1.66a.16.16,0,0,0,.12,0L2,1.09l0,0S2,1,2,1Z"/><path class="cls-9" d="M2,.68,1.19.41H1.13L.07,1l0,0h0L.22,1l.27.1H.57l.35.13.07,0h.07l.06,0h0l.05,0L1.68.93h0l0,0L2,.75H2v0S2,.69,2,.68Z"/><path class="cls-10" d="M2,1,1.88,1V1l0,0-.87.57L.67,1.46.18,1.28h0l0,0h0l.5.18L1,1.61a.16.16,0,0,0,.12,0L2,1A0,0,0,0,0,2,1S2,1,2,1Z"/><path class="cls-11" d="M.13.89a.2.2,0,0,1,0-.19l0,0a.12.12,0,0,0,0,.09.22.22,0,0,0,0,.15l0,0,0,0Z"/><path class="cls-2" d="M1,1.05,1,1H1L.88,1,.53.83h0L.37.78h0L.14.69a.2.2,0,0,0,0,.19l0,0h0l.49.17.38.13C1,1.2,1,1.09,1,1.05Z"/><path class="cls-3" d="M1.89.62v0a.13.13,0,0,1,0-.07l0,0L1.77.56l0,0h0l-.4.26,0,0L1.12,1A.16.16,0,0,1,1,1l0,.05s0,.14.06.18L1.92.66Z"/><path class="cls-12" d="M2,.65a0,0,0,0,1,0,0l-.85.56a.16.16,0,0,1-.12,0L.62,1.12.13.94l0,0h0l0,0h0l0,0a.22.22,0,0,1,0-.15A.12.12,0,0,1,.1.68l0,0L.33.76h0l.14,0h0L.88,1,1,1H1a.16.16,0,0,0,.1,0l.16-.1,0,0,.4-.26h0l0,0L1.89.48,2,.43a0,0,0,0,0,0,0s0,0,0,0v0H2L1.73.54l0,0h0L1.19.89l-.05,0h0L1.06,1H1L.93.93.57.8h0L.37.73.22.68.16.66h0l0,0A.2.2,0,0,0,0,.77C0,.82,0,.94.07,1L1,1.3a.16.16,0,0,0,.12,0L2,.73a0,0,0,0,0,0,0S2,.68,2,.65Z"/><path class="cls-13" d="M2,.32,1.07,0H1L.07.62l0,0h0l.06,0L.37.73.53.79h0L.93.93,1,1h.07l.06,0h0l.05,0L1.68.57h0l0,0L2,.39H2v0S2,.33,2,.32Z"/><path class="cls-14" d="M2,.62l-.08,0v0l0,0-.87.57L.67,1.1.18.92h0l0,0h0l.5.18L1,1.25a.16.16,0,0,0,.12,0L2,.68a0,0,0,0,0,0,0S2,.63,2,.62Z"/></g></g></svg>