<svg xmlns="http://www.w3.org/2000/svg" viewBox="0 0 46 50"><defs><style>.cls-1{fill:#4d4d4d;}</style></defs><title>book_series_white</title><g id="Layer_2" data-name="Layer 2"><g id="Icon"><path class="cls-1" d="M46,2V0H14a4,4,0,0,0-4,4v6H4a4,4,0,0,0-4,4V46a4,4,0,0,0,4,4H36V40H46V6a2,2,0,0,1,0-4ZM14,2H42.56A4,4,0,0,0,42,4a4,4,0,0,0,.56,2H14a2,2,0,0,1,0-4ZM4,12H32.56a3.87,3.87,0,0,0,0,4H4a2,2,0,0,1,0-4ZM4,48a2,2,0,0,1-2-2V17.44A4,4,0,0,0,4,18H34V48ZM36,38V16a2,2,0,0,1,0-4V10H12V7.44A4,4,0,0,0,14,8H44V38Z"/><rect class="cls-1" x="8" y="24" width="20" height="2"/><rect class="cls-1" x="8" y="28" width="16" height="2"/></g></g></svg>