<svg xmlns="http://www.w3.org/2000/svg" viewBox="0 0 118.36 51.92"><defs><style>.cls-1{fill:#fff;}.cls-2{fill:#06b3bc;}</style></defs><title>book_nochapter_reading_blue</title><g id="Layer_2" data-name="Layer 2"><g id="_ÎÓÈ_1" data-name="—ÎÓÈ_1"><g id="_Group_" data-name="&lt;Group&gt;"><g id="_Group_2" data-name="&lt;Group&gt;"><path id="_Path_" data-name="&lt;Path&gt;" class="cls-1" d="M52.69,41.59Q54.6,45,56.45,48.4C66.41,44,76,40.24,85.79,35.68s18.78-9.21,29.57-14.57q-1.37-3.72-2.81-7.44A307.89,307.89,0,0,0,52.69,41.59Z"/><path id="_Path_2" data-name="&lt;Path&gt;" class="cls-1" d="M65.67,41.59Q63.76,45,61.91,48.4C51.95,44,42.4,40.24,32.57,35.68S13.79,26.46,3,21.11q1.37-3.72,2.81-7.44A307.89,307.89,0,0,1,65.67,41.59Z"/></g><g id="_Group_3" data-name="&lt;Group&gt;"><path id="_Path_3" data-name="&lt;Path&gt;" class="cls-2" d="M59.94,48.49h0a1.77,1.77,0,0,1-2.35.86L1,23.13a1.77,1.77,0,0,1-.86-2.35h0a1.77,1.77,0,0,1,2.35-.86L59.08,46.15A1.77,1.77,0,0,1,59.94,48.49Z"/><path id="_Path_4" data-name="&lt;Path&gt;" class="cls-2" d="M58.42,48.49h0a1.77,1.77,0,0,0,2.35.86l56.56-26.22a1.77,1.77,0,0,0,.86-2.35h0a1.77,1.77,0,0,0-2.35-.86L59.28,46.15A1.77,1.77,0,0,0,58.42,48.49Z"/><path id="_Path_5" data-name="&lt;Path&gt;" class="cls-2" d="M50.4,44.73a8.71,8.71,0,0,0,17.15,0L59,48.32Z"/></g><path id="_Path_6" data-name="&lt;Path&gt;" class="cls-1" d="M111.42,10.56a318,318,0,0,0-53,27.8l-.4-.62A318.75,318.75,0,0,1,111.14,9.88Z"/><path id="_Path_7" data-name="&lt;Path&gt;" class="cls-1" d="M108.11,4.44A191.32,191.32,0,0,0,58.48,37.92L58,37.38A192.06,192.06,0,0,1,107.79,3.77Z"/><path id="_Path_8" data-name="&lt;Path&gt;" class="cls-1" d="M109.83,7.53A191.32,191.32,0,0,0,58.52,38.35L58,37.78A192.06,192.06,0,0,1,109.55,6.84Z"/><path id="_Path_9" data-name="&lt;Path&gt;" class="cls-1" d="M105.26.67A128.21,128.21,0,0,0,58.57,38.13L58,37.67A129,129,0,0,1,104.94,0Z"/><path id="_Path_10" data-name="&lt;Path&gt;" class="cls-1" d="M6.88,11.61a318,318,0,0,1,53,27.8l.4-.62A318.77,318.77,0,0,0,7.16,10.92Z"/><path id="_Path_11" data-name="&lt;Path&gt;" class="cls-1" d="M8.71,8.14A191.32,191.32,0,0,1,59.51,39.8l.49-.56A192.06,192.06,0,0,0,9,7.46Z"/><path id="_Path_12" data-name="&lt;Path&gt;" class="cls-1" d="M13,2A128.21,128.21,0,0,1,59.71,39.49L60.3,39a129,129,0,0,0-47-37.67Z"/></g></g></g></svg>