<svg xmlns="http://www.w3.org/2000/svg" viewBox="0 0 46 50"><defs><style>.cls-1{fill:#4d4d4d;}</style></defs><title>book_series_black</title><g id="Layer_2" data-name="Layer 2"><g id="Icon"><path class="cls-1" d="M36,12V10H4a4,4,0,0,0-4,4V46a4,4,0,0,0,4,4H36V16a2,2,0,0,1,0-4ZM4,12H32.56a3.89,3.89,0,0,0,0,4H4a2,2,0,0,1,0-4ZM24,30H8V28H24Zm4-4H8V24H28Z"/><path class="cls-1" d="M46,2V0H14a4,4,0,0,0-4,4V8H38V40h8V6a2,2,0,0,1,0-4ZM42.56,6H14a2,2,0,0,1,0-4H42.56A4,4,0,0,0,42,4,4,4,0,0,0,42.56,6Z"/></g></g></svg>