<svg xmlns="http://www.w3.org/2000/svg" viewBox="0 0 1.49 1.95"><defs><style>.cls-1{fill:#fff;}.cls-2{fill:#2b2b2b;}.cls-3{fill:#00d0ff;}</style></defs><title>book_chapter_color</title><g id="Layer_2" data-name="Layer 2"><g id="Layer_1-2" data-name="Layer 1"><path class="cls-1" d="M.37.65H1.48A.38.38,0,0,1,1.41.56.5.5,0,0,1,1.35.37.38.38,0,0,1,1.41.09h-1a.28.28,0,1,0,0,.56Z"/><path class="cls-2" d="M1.49.64h0l-.06,0h-1A.19.19,0,0,1,.19.34.18.18,0,0,1,.35.19h1c.07,0,.12,0,.12-.09A.09.09,0,0,0,1.35,0h-1A.37.37,0,0,0,0,.37V1.58a.37.37,0,0,0,.37.37h1a.09.09,0,0,0,.09-.09V.65Z"/><polygon class="cls-3" points="0.83 1.25 0.62 1.12 0.41 1.25 0.41 0.54 0.83 0.54 0.83 1.25"/></g></g></svg>