<svg xmlns="http://www.w3.org/2000/svg" viewBox="0 0 122.21 113.71"><defs><style>.cls-1{fill:#dbdb4f;}.cls-2{fill:#c9cd44;}.cls-3{fill:#fff;}.cls-4{fill:#e6e7e8;}.cls-5{fill:#e04756;}.cls-6{fill:#d63a51;}.cls-7{fill:#23bdcd;}.cls-8{fill:#06b3bc;}.cls-9{fill:#ffaf0f;}.cls-10{fill:#f4a10c;}</style></defs><title>book_series_multicolor</title><g id="Layer_2" data-name="Layer 2"><g id="_ÎÓÈ_1" data-name="—ÎÓÈ_1"><g id="_Group_" data-name="&lt;Group&gt;"><g id="_Group_2" data-name="&lt;Group&gt;"><path id="_Rectangle_" data-name="&lt;Rectangle&gt;" class="cls-1" d="M.41,9.52H68.9a0,0,0,0,1,0,0V84.75a4.12,4.12,0,0,1-4.12,4.12H3.91a3.5,3.5,0,0,1-3.5-3.5V9.52A0,0,0,0,1,.41,9.52Z"/><path id="_Path_" data-name="&lt;Path&gt;" class="cls-2" d="M0,4.84H3v84H3a3,3,0,0,1-3-3Z"/><g id="_Group_3" data-name="&lt;Group&gt;"><rect id="_Rectangle_2" data-name="&lt;Rectangle&gt;" class="cls-3" x="0.82" y="0.54" width="66.6" height="9.88"/><path id="_Path_2" data-name="&lt;Path&gt;" class="cls-2" d="M0,5.47A19.76,19.76,0,0,1,.37,1.28,1.42,1.42,0,0,1,1.63,0H68.9V1.11H2.57a1.45,1.45,0,0,0-1.28,1.4,20,20,0,0,0-.16,3,20,20,0,0,0,.16,3,1.45,1.45,0,0,0,1.28,1.4H68.9V11H1.61A1.42,1.42,0,0,1,.35,9.66,20.74,20.74,0,0,1,0,5.47Z"/><g id="_Group_4" data-name="&lt;Group&gt;"><rect id="_Rectangle_3" data-name="&lt;Rectangle&gt;" class="cls-4" x="4.24" y="7.34" width="61.06" height="0.11"/><rect id="_Rectangle_4" data-name="&lt;Rectangle&gt;" class="cls-4" x="4.24" y="5.42" width="61.06" height="0.11"/><rect id="_Rectangle_5" data-name="&lt;Rectangle&gt;" class="cls-4" x="4.24" y="3.51" width="61.06" height="0.11"/></g></g><path id="_Compound_Path_" data-name="&lt;Compound Path&gt;" class="cls-2" d="M7.73,84.59V13.75H63V84.59Zm54.4-70.05H8.6V83.81H62.13Z"/></g><g id="_Group_5" data-name="&lt;Group&gt;"><g id="_Group_6" data-name="&lt;Group&gt;"><path id="_Rectangle_6" data-name="&lt;Rectangle&gt;" class="cls-5" d="M18.18,17.8H86.67a0,0,0,0,1,0,0V93a4.12,4.12,0,0,1-4.12,4.12H21.69a3.5,3.5,0,0,1-3.5-3.5V17.8A0,0,0,0,1,18.18,17.8Z"/><path id="_Path_3" data-name="&lt;Path&gt;" class="cls-6" d="M17.77,13.12h3v84h0a3,3,0,0,1-3-3Z"/><g id="_Group_7" data-name="&lt;Group&gt;"><rect id="_Rectangle_7" data-name="&lt;Rectangle&gt;" class="cls-3" x="18.59" y="8.82" width="66.6" height="9.88"/><path id="_Path_4" data-name="&lt;Path&gt;" class="cls-6" d="M17.78,13.75a19.77,19.77,0,0,1,.36-4.19A1.42,1.42,0,0,1,19.4,8.28H86.67V9.39H20.34a1.45,1.45,0,0,0-1.28,1.4,20,20,0,0,0-.16,3,20,20,0,0,0,.16,3,1.45,1.45,0,0,0,1.28,1.4H86.67v1.12H19.39a1.42,1.42,0,0,1-1.26-1.3A20.74,20.74,0,0,1,17.78,13.75Z"/><g id="_Group_8" data-name="&lt;Group&gt;"><rect id="_Rectangle_8" data-name="&lt;Rectangle&gt;" class="cls-4" x="22.01" y="15.62" width="61.06" height="0.11"/><rect id="_Rectangle_9" data-name="&lt;Rectangle&gt;" class="cls-4" x="22.01" y="13.7" width="61.06" height="0.11"/><rect id="_Rectangle_10" data-name="&lt;Rectangle&gt;" class="cls-4" x="22.01" y="11.79" width="61.06" height="0.11"/></g></g><path id="_Compound_Path_2" data-name="&lt;Compound Path&gt;" class="cls-6" d="M25.5,92.86V22H80.77V92.86ZM79.9,22.81H26.37V92.08H79.9Z"/></g><rect id="_Rectangle_11" data-name="&lt;Rectangle&gt;" class="cls-6" x="41.99" y="85.14" width="22.3" height="3.06"/><rect id="_Rectangle_12" data-name="&lt;Rectangle&gt;" class="cls-6" x="36.41" y="68.54" width="33.44" height="3.06"/><rect id="_Rectangle_13" data-name="&lt;Rectangle&gt;" class="cls-6" x="36.41" y="61.11" width="33.44" height="3.06"/></g><g id="_Group_9" data-name="&lt;Group&gt;"><g id="_Group_10" data-name="&lt;Group&gt;"><path id="_Rectangle_14" data-name="&lt;Rectangle&gt;" class="cls-7" d="M36,26.08h68.49a0,0,0,0,1,0,0v75.23a4.12,4.12,0,0,1-4.12,4.12H39.46a3.5,3.5,0,0,1-3.5-3.5V26.08A0,0,0,0,1,36,26.08Z"/><path id="_Path_5" data-name="&lt;Path&gt;" class="cls-8" d="M35.54,21.4h3v84h0a3,3,0,0,1-3-3Z"/><g id="_Group_11" data-name="&lt;Group&gt;"><rect id="_Rectangle_15" data-name="&lt;Rectangle&gt;" class="cls-3" x="36.36" y="17.1" width="66.6" height="9.88"/><path id="_Path_6" data-name="&lt;Path&gt;" class="cls-8" d="M35.55,22a19.77,19.77,0,0,1,.36-4.19,1.42,1.42,0,0,1,1.26-1.28h67.27v1.11H38.11a1.45,1.45,0,0,0-1.28,1.4,20,20,0,0,0-.16,3,20,20,0,0,0,.16,3,1.45,1.45,0,0,0,1.28,1.4h66.33v1.12H37.16a1.42,1.42,0,0,1-1.26-1.3A20.75,20.75,0,0,1,35.55,22Z"/><g id="_Group_12" data-name="&lt;Group&gt;"><rect id="_Rectangle_16" data-name="&lt;Rectangle&gt;" class="cls-4" x="39.78" y="23.9" width="61.06" height="0.11"/><rect id="_Rectangle_17" data-name="&lt;Rectangle&gt;" class="cls-4" x="39.78" y="21.98" width="61.06" height="0.11"/><rect id="_Rectangle_18" data-name="&lt;Rectangle&gt;" class="cls-4" x="39.78" y="20.07" width="61.06" height="0.11"/></g></g><path id="_Compound_Path_3" data-name="&lt;Compound Path&gt;" class="cls-8" d="M43.27,101.14V30.31H98.54v70.83Zm54.4-70.05H44.15v69.27H97.67Z"/></g><g id="_Group_13" data-name="&lt;Group&gt;"><rect id="_Rectangle_19" data-name="&lt;Rectangle&gt;" class="cls-8" x="64.72" y="94.11" width="12.38" height="1.68"/><rect id="_Rectangle_20" data-name="&lt;Rectangle&gt;" class="cls-8" x="60.31" y="34.23" width="21.2" height="2.3"/></g></g><g id="_Group_14" data-name="&lt;Group&gt;"><g id="_Group_15" data-name="&lt;Group&gt;"><path id="_Rectangle_21" data-name="&lt;Rectangle&gt;" class="cls-9" d="M53.73,34.36h68.49a0,0,0,0,1,0,0v75.23a4.13,4.13,0,0,1-4.12,4.13H57.23a3.5,3.5,0,0,1-3.5-3.5V34.36A0,0,0,0,1,53.73,34.36Z"/><path id="_Rectangle_22" data-name="&lt;Rectangle&gt;" class="cls-10" d="M53.32,29.68h3a0,0,0,0,1,0,0v84a0,0,0,0,1,0,0h0a3,3,0,0,1-3-3V29.68A0,0,0,0,1,53.32,29.68Z"/><g id="_Group_16" data-name="&lt;Group&gt;"><rect id="_Rectangle_23" data-name="&lt;Rectangle&gt;" class="cls-3" x="54.13" y="25.37" width="66.6" height="9.88"/><path id="_Path_7" data-name="&lt;Path&gt;" class="cls-10" d="M53.32,30.31a19.77,19.77,0,0,1,.36-4.19,1.42,1.42,0,0,1,1.26-1.28h67.27v1.11H55.88a1.45,1.45,0,0,0-1.28,1.4,20,20,0,0,0-.16,3,20,20,0,0,0,.16,3,1.45,1.45,0,0,0,1.28,1.4h66.33v1.12H54.93a1.42,1.42,0,0,1-1.26-1.3A20.75,20.75,0,0,1,53.32,30.31Z"/><g id="_Group_17" data-name="&lt;Group&gt;"><rect id="_Rectangle_24" data-name="&lt;Rectangle&gt;" class="cls-4" x="57.56" y="32.17" width="61.06" height="0.11"/><rect id="_Rectangle_25" data-name="&lt;Rectangle&gt;" class="cls-4" x="57.56" y="30.26" width="61.06" height="0.11"/><rect id="_Rectangle_26" data-name="&lt;Rectangle&gt;" class="cls-4" x="57.56" y="28.35" width="61.06" height="0.11"/></g></g><path id="_Compound_Path_4" data-name="&lt;Compound Path&gt;" class="cls-10" d="M61,109.42V38.59h55.27v70.83Zm54.4-70.05H61.92v69.27h53.52Z"/></g><rect id="_Rectangle_27" data-name="&lt;Rectangle&gt;" class="cls-10" x="74.26" y="76.7" width="28.84" height="6.55"/><rect id="_Rectangle_28" data-name="&lt;Rectangle&gt;" class="cls-10" x="74.26" y="71.7" width="28.84" height="3.28"/></g></g></g></g></svg>