<svg xmlns="http://www.w3.org/2000/svg" viewBox="0 0 68.9 88.88"><defs><style>.cls-1{fill:#e04756;}.cls-2{fill:#d63a51;}.cls-3{fill:#fff;}.cls-4{fill:#e6e7e8;}</style></defs><title>book_chapter_read_red</title><g id="Layer_2" data-name="Layer 2"><g id="_ÎÓÈ_1" data-name="—ÎÓÈ_1"><g id="_Group_" data-name="&lt;Group&gt;"><g id="_Group_2" data-name="&lt;Group&gt;"><path id="_Rectangle_" data-name="&lt;Rectangle&gt;" class="cls-1" d="M3.91,0H64.77A4.13,4.13,0,0,1,68.9,4.13V79.36a0,0,0,0,1,0,0H.41a0,0,0,0,1,0,0V3.5A3.5,3.5,0,0,1,3.91,0Z"/><path id="_Path_" data-name="&lt;Path&gt;" class="cls-2" d="M0,84H3V0H3A3,3,0,0,0,0,3Z"/><g id="_Group_3" data-name="&lt;Group&gt;"><rect id="_Rectangle_2" data-name="&lt;Rectangle&gt;" class="cls-3" x="0.82" y="78.46" width="66.6" height="9.88"/><path id="_Path_2" data-name="&lt;Path&gt;" class="cls-2" d="M0,83.41a19.77,19.77,0,0,0,.36,4.19,1.42,1.42,0,0,0,1.26,1.28H68.9V87.77H2.57a1.45,1.45,0,0,1-1.28-1.4,26.84,26.84,0,0,1,0-5.93A1.45,1.45,0,0,1,2.57,79H68.9V77.92H1.61a1.42,1.42,0,0,0-1.26,1.3A20.74,20.74,0,0,0,0,83.41Z"/><g id="_Group_4" data-name="&lt;Group&gt;"><rect id="_Rectangle_3" data-name="&lt;Rectangle&gt;" class="cls-4" x="4.24" y="81.43" width="61.06" height="0.11"/><rect id="_Rectangle_4" data-name="&lt;Rectangle&gt;" class="cls-4" x="4.24" y="83.35" width="61.06" height="0.11"/><rect id="_Rectangle_5" data-name="&lt;Rectangle&gt;" class="cls-4" x="4.24" y="85.26" width="61.06" height="0.11"/></g></g><path id="_Compound_Path_" data-name="&lt;Compound Path&gt;" class="cls-2" d="M7.73,4.29V75.13H63V4.29Zm54.4,70.05H8.6V5.07H62.13Z"/></g><rect id="_Rectangle_6" data-name="&lt;Rectangle&gt;" class="cls-2" x="24.22" y="8.96" width="22.3" height="3.06"/><rect id="_Rectangle_7" data-name="&lt;Rectangle&gt;" class="cls-2" x="18.64" y="25.56" width="33.44" height="3.06"/><rect id="_Rectangle_8" data-name="&lt;Rectangle&gt;" class="cls-2" x="18.64" y="32.99" width="33.44" height="3.06"/></g></g></g></svg>