<svg xmlns="http://www.w3.org/2000/svg" viewBox="0 0 4.78 6.44"><defs><style>.cls-1{fill:#f5f5f5;}.cls-1,.cls-10,.cls-11,.cls-2,.cls-3,.cls-4,.cls-5,.cls-6,.cls-7,.cls-8,.cls-9{fill-rule:evenodd;}.cls-2{fill:#e9e9eb;}.cls-3{fill:#dddee1;}.cls-4{fill:#d1d2d6;}.cls-5{fill:#9c9c9c;}.cls-6{fill:#e6eaeb;}.cls-7{fill:#30383b;}.cls-8{fill:#d44f3e;}.cls-9{fill:#f25e4b;}.cls-10{fill:#f0b11d;}.cls-11{fill:#fac13c;}</style></defs><title>certificate</title><g id="Layer_2" data-name="Layer 2"><g id="_ÎÓÈ_1" data-name="—ÎÓÈ 1"><path class="cls-1" d="M4.08,4.08a1,1,0,0,1,0,2A3.73,3.73,0,0,1,.7,6a1,1,0,0,1,0-2A3.73,3.73,0,0,1,4.08,4.08Z"/><path class="cls-2" d="M3.78,4.25a.85.85,0,0,1,0,1.61A3.08,3.08,0,0,1,1,5.86.85.85,0,0,1,1,4.25,3.08,3.08,0,0,1,3.78,4.25Z"/><path class="cls-3" d="M3.49,4.42a.67.67,0,0,1,0,1.27,2.43,2.43,0,0,1-2.2,0,.67.67,0,0,1,0-1.27A2.43,2.43,0,0,1,3.49,4.42Z"/><path class="cls-4" d="M3.2,4.59a.49.49,0,0,1,0,.93,1.78,1.78,0,0,1-1.61,0,.49.49,0,0,1,0-.93A1.78,1.78,0,0,1,3.2,4.59Z"/><path class="cls-5" d="M.57,4.61v.07h0l.13.08h0V2.08l0,0V2l0,0,0,0H.87L4,.1h.12L4,0H3.91L.74,1.85H.69l0,0V2l0,0V4.61Z"/><path class="cls-6" d="M4,3a.36.36,0,0,0,.11-.12h0a.35.35,0,0,0,0-.17V.2A.12.12,0,0,0,4.16.09.12.12,0,0,0,4,.1L.87,1.93a.35.35,0,0,0-.12.13h0a.35.35,0,0,0-.05.17V4.69a.12.12,0,0,0,.05.11.12.12,0,0,0,.12,0Z"/><path class="cls-7" d="M1.32,3.79s0,0,0,0a.09.09,0,0,1,0-.07L2.46,3s0,0,0,0a.1.1,0,0,1,0,.07l-1.14.66ZM2.46,2.64l-1.14.66a.1.1,0,0,0,0,.07s0,0,0,0l1.14-.66a.09.09,0,0,0,0-.07s0,0,0,0ZM1.32,2.4s0,0,0,0a.09.09,0,0,1,0-.07L3.59,1s0,0,0,0a.09.09,0,0,1,0,.07Z"/><polygon class="cls-8" points="2.81 3.66 2.79 3.65 2.78 3.65 2.78 3.65 2.78 3.65 2.78 3.65 2.78 3.65 2.78 3.65 2.78 3.65 2.78 3.66 2.81 3.67 2.81 3.67 2.81 3.67 2.81 3.67 2.81 3.67 2.81 3.67 2.81 3.67 2.81 3.66 2.81 3.66"/><polygon class="cls-8" points="2.81 3.67 2.78 3.66 2.72 3.83 2.74 3.84 2.81 3.67"/><polygon class="cls-8" points="2.97 3.68 2.94 3.66 2.94 3.67 2.95 3.67 2.97 3.69 2.97 3.68 2.97 3.68"/><polygon class="cls-8" points="2.97 3.69 2.95 3.67 3.01 3.85 3.04 3.87 2.97 3.69"/><polygon class="cls-8" points="3.31 3.17 3.28 3.15 3.28 3.15 3.31 3.17 3.31 3.17"/><polygon class="cls-8" points="3.31 3.17 3.28 3.15 3.28 3.15 3.3 3.17 3.31 3.17"/><polygon class="cls-8" points="3.3 3.17 3.28 3.15 3.27 3.15 3.3 3.17 3.3 3.17"/><polygon class="cls-8" points="3.3 3.17 3.27 3.15 3.27 3.15 3.3 3.17 3.3 3.17"/><polygon class="cls-8" points="3.3 3.17 3.27 3.15 3.27 3.16 3.3 3.17 3.3 3.17"/><polygon class="cls-8" points="3.3 3.17 3.27 3.16 3.27 3.16 3.3 3.17 3.3 3.17"/><polygon class="cls-8" points="3.3 3.17 3.27 3.16 3.27 3.16 3.29 3.17 3.3 3.17"/><polygon class="cls-8" points="3.29 3.17 3.27 3.16 3.27 3.16 3.29 3.17 3.29 3.17"/><polygon class="cls-8" points="3.29 3.17 3.27 3.16 3.26 3.16 3.29 3.17 3.29 3.17"/><polygon class="cls-8" points="3.29 3.17 3.26 3.16 3.26 3.16 3.29 3.17 3.29 3.17"/><polygon class="cls-8" points="3.29 3.17 3.26 3.16 3.26 3.16 3.29 3.18 3.29 3.17"/><polygon class="cls-8" points="3.29 3.18 3.26 3.16 3.26 3.16 3.28 3.18 3.29 3.18"/><polygon class="cls-8" points="3.28 3.18 3.26 3.16 3.25 3.16 3.28 3.18 3.28 3.18"/><polygon class="cls-8" points="3.28 3.18 3.25 3.16 3.25 3.16 3.28 3.18 3.28 3.18"/><polygon class="cls-8" points="3.28 3.18 3.25 3.16 3.25 3.16 3.28 3.18 3.28 3.18"/><polygon class="cls-8" points="3.28 3.18 3.25 3.16 3.25 3.16 3.28 3.18 3.28 3.18"/><polygon class="cls-8" points="3.28 3.18 3.25 3.16 3.24 3.17 3.27 3.18 3.28 3.18"/><polygon class="cls-8" points="3.27 3.18 3.24 3.17 3.24 3.17 3.27 3.18 3.27 3.18"/><polygon class="cls-8" points="3.27 3.18 3.24 3.17 3.24 3.17 3.26 3.18 3.27 3.18"/><polygon class="cls-8" points="3.26 3.18 3.24 3.17 3.24 3.17 3.26 3.18 3.26 3.18"/><polygon class="cls-8" points="3.26 3.18 3.24 3.17 3.23 3.17 3.26 3.18 3.26 3.18"/><polygon class="cls-8" points="3.26 3.18 3.23 3.17 3.23 3.17 3.26 3.18 3.26 3.18"/><polygon class="cls-8" points="3.26 3.18 3.23 3.17 3.23 3.17 3.25 3.18 3.26 3.18"/><polygon class="cls-8" points="3.25 3.18 3.23 3.17 3.23 3.17 3.25 3.18 3.25 3.18"/><polygon class="cls-8" points="3.25 3.18 3.23 3.17 3.23 3.17 3.25 3.18 3.25 3.18"/><polygon class="cls-8" points="3.25 3.18 3.23 3.17 3.22 3.17 3.25 3.18 3.25 3.18"/><polygon class="cls-8" points="3.25 3.18 3.22 3.17 3.22 3.17 3.25 3.18 3.25 3.18"/><polygon class="cls-8" points="3.25 3.18 3.22 3.17 3.22 3.17 3.24 3.18 3.25 3.18"/><polygon class="cls-8" points="3.24 3.18 3.22 3.17 3.22 3.17 3.24 3.18 3.24 3.18"/><polygon class="cls-8" points="3.24 3.18 3.22 3.17 3.21 3.17 3.24 3.18 3.24 3.18"/><polygon class="cls-8" points="3.24 3.18 3.21 3.17 3.21 3.17 3.24 3.18 3.24 3.18"/><polygon class="cls-8" points="3.24 3.18 3.21 3.17 3.21 3.17 3.23 3.19 3.24 3.18"/><polygon class="cls-8" points="3.23 3.19 3.21 3.17 3.21 3.17 3.23 3.19 3.23 3.19"/><polygon class="cls-8" points="3.23 3.19 3.21 3.17 3.21 3.17 3.23 3.19 3.23 3.19"/><polygon class="cls-8" points="3.23 3.19 3.21 3.17 3.2 3.17 3.23 3.19 3.23 3.19"/><polygon class="cls-8" points="3.23 3.19 3.2 3.17 3.2 3.17 3.23 3.19 3.23 3.19"/><polygon class="cls-8" points="3.23 3.19 3.2 3.17 3.2 3.17 3.23 3.19 3.23 3.19"/><polygon class="cls-8" points="3.23 3.19 3.2 3.17 3.2 3.17 3.22 3.19 3.23 3.19"/><polygon class="cls-8" points="3.22 3.19 3.2 3.17 3.19 3.17 3.22 3.19 3.22 3.19"/><polygon class="cls-8" points="3.22 3.19 3.19 3.17 3.19 3.17 3.22 3.19 3.22 3.19"/><polygon class="cls-8" points="3.22 3.19 3.19 3.17 3.19 3.17 3.22 3.19 3.22 3.19"/><polygon class="cls-8" points="3.22 3.19 3.19 3.17 3.19 3.17 3.22 3.19 3.22 3.19"/><polygon class="cls-8" points="3.22 3.19 3.19 3.17 3.19 3.17 3.21 3.19 3.22 3.19"/><polygon class="cls-8" points="3.21 3.19 3.19 3.17 3.19 3.17 3.21 3.19 3.21 3.19"/><polygon class="cls-8" points="3.21 3.19 3.19 3.17 3.19 3.17 3.21 3.19 3.21 3.19"/><polygon class="cls-8" points="3.21 3.19 3.19 3.17 3.18 3.17 3.21 3.19 3.21 3.19"/><polygon class="cls-8" points="3.21 3.19 3.18 3.17 3.18 3.17 3.21 3.19 3.21 3.19"/><polygon class="cls-8" points="3.21 3.19 3.18 3.17 3.18 3.17 3.21 3.19 3.21 3.19"/><polygon class="cls-8" points="3.21 3.19 3.18 3.17 3.18 3.17 3.2 3.19 3.21 3.19"/><polygon class="cls-8" points="3.2 3.19 3.18 3.17 3.17 3.17 3.2 3.19 3.2 3.19"/><polygon class="cls-8" points="3.2 3.19 3.17 3.17 3.17 3.17 3.2 3.19 3.2 3.19"/><polygon class="cls-8" points="3.2 3.19 3.17 3.17 3.17 3.17 3.2 3.19 3.2 3.19"/><polygon class="cls-8" points="3.2 3.19 3.17 3.17 3.17 3.17 3.19 3.19 3.2 3.19"/><polygon class="cls-8" points="3.19 3.19 3.17 3.17 3.17 3.17 3.19 3.19 3.19 3.19"/><polygon class="cls-8" points="3.19 3.19 3.17 3.17 3.17 3.17 3.19 3.18 3.19 3.19"/><polygon class="cls-8" points="3.19 3.18 3.17 3.17 3.16 3.17 3.19 3.18 3.19 3.18"/><polygon class="cls-8" points="3.19 3.18 3.16 3.17 3.16 3.17 3.19 3.18 3.19 3.18"/><polygon class="cls-8" points="3.19 3.18 3.16 3.17 3.16 3.17 3.19 3.18 3.19 3.18"/><polygon class="cls-8" points="3.19 3.18 3.16 3.17 3.16 3.17 3.19 3.18 3.19 3.18"/><polygon class="cls-8" points="3.19 3.18 3.16 3.17 3.16 3.17 3.18 3.18 3.19 3.18"/><polygon class="cls-8" points="3.18 3.18 3.16 3.17 3.16 3.17 3.18 3.18 3.18 3.18"/><polygon class="cls-8" points="3.18 3.18 3.16 3.17 3.15 3.17 3.18 3.18 3.18 3.18"/><polygon class="cls-8" points="3.18 3.18 3.15 3.17 3.15 3.17 3.18 3.18 3.18 3.18"/><polygon class="cls-8" points="3.18 3.18 3.15 3.17 3.15 3.17 3.18 3.18 3.18 3.18"/><polygon class="cls-8" points="3.18 3.18 3.15 3.17 3.15 3.17 3.17 3.18 3.18 3.18"/><polygon class="cls-8" points="3.17 3.18 3.15 3.17 3.15 3.17 3.17 3.18 3.17 3.18"/><polygon class="cls-8" points="3.17 3.18 3.15 3.17 3.14 3.17 3.17 3.18 3.17 3.18"/><polygon class="cls-8" points="3.17 3.18 3.14 3.17 3.14 3.17 3.17 3.18 3.17 3.18"/><polygon class="cls-8" points="3.17 3.18 3.14 3.17 3.14 3.17 3.17 3.18 3.17 3.18"/><polygon class="cls-8" points="3.17 3.18 3.14 3.17 3.14 3.16 3.17 3.18 3.17 3.18"/><polygon class="cls-8" points="3.17 3.18 3.14 3.16 3.14 3.16 3.16 3.18 3.17 3.18"/><polygon class="cls-8" points="3.16 3.18 3.14 3.16 3.13 3.16 3.16 3.18 3.16 3.18"/><polygon class="cls-8" points="3.16 3.18 3.13 3.16 3.13 3.16 3.16 3.18 3.16 3.18"/><polygon class="cls-8" points="3.16 3.18 3.13 3.16 3.13 3.16 3.16 3.18 3.16 3.18"/><polygon class="cls-8" points="3.16 3.18 3.13 3.16 3.13 3.16 3.16 3.18 3.16 3.18"/><polygon class="cls-8" points="3.16 3.18 3.13 3.16 3.13 3.16 3.15 3.18 3.16 3.18"/><polygon class="cls-8" points="3.15 3.18 3.13 3.16 3.13 3.16 3.15 3.18 3.15 3.18"/><polygon class="cls-8" points="3.15 3.18 3.13 3.16 3.13 3.16 3.15 3.17 3.15 3.18"/><polygon class="cls-8" points="3.15 3.17 3.13 3.16 3.13 3.16 3.15 3.17 3.15 3.17"/><polygon class="cls-8" points="3.15 3.17 3.13 3.16 3.12 3.16 3.15 3.17 3.15 3.17"/><path class="cls-8" d="M3.12,3.16Zm0,0"/><polygon class="cls-8" points="3.15 3.17 3.12 3.16 3.12 3.16 3.15 3.17 3.15 3.17"/><polygon class="cls-8" points="3.15 3.17 3.12 3.16 3.12 3.16 3.14 3.17 3.15 3.17"/><polygon class="cls-8" points="3.14 3.17 3.12 3.16 3.12 3.16 3.14 3.17 3.14 3.17"/><polygon class="cls-8" points="3.14 3.17 3.12 3.16 3.11 3.15 3.14 3.17 3.14 3.17"/><polygon class="cls-8" points="3.14 3.17 3.11 3.15 3.11 3.15 3.14 3.17 3.14 3.17"/><polygon class="cls-8" points="3.14 3.17 3.11 3.15 3.11 3.15 3.14 3.17 3.14 3.17"/><polygon class="cls-8" points="3.14 3.17 3.11 3.15 3.11 3.15 3.14 3.17 3.14 3.17"/><polygon class="cls-8" points="3.14 3.17 3.11 3.15 3.11 3.15 3.13 3.17 3.14 3.17"/><polygon class="cls-8" points="3.13 3.17 3.11 3.15 3.1 3.15 3.13 3.17 3.13 3.17"/><polygon class="cls-8" points="3.13 3.17 3.1 3.15 3.1 3.15 3.13 3.16 3.13 3.17"/><polygon class="cls-8" points="3.13 3.16 3.1 3.15 3.1 3.15 3.12 3.16 3.13 3.16"/><polygon class="cls-8" points="3.12 3.16 3.1 3.15 3.1 3.15 3.12 3.16 3.12 3.16"/><polygon class="cls-8" points="3.12 3.16 3.09 3.15 3.09 3.15 3.12 3.16 3.12 3.16"/><polygon class="cls-8" points="3.12 3.16 3.09 3.15 3.09 3.15 3.12 3.16 3.12 3.16"/><polygon class="cls-8" points="3.04 3.06 3.02 3.05 2.79 3.65 2.81 3.66 3.04 3.06"/><polygon class="cls-8" points="3.44 3.09 3.41 3.08 3.68 3.46 3.71 3.47 3.44 3.09"/><polygon class="cls-8" points="3.7 2.69 3.67 2.67 3.67 2.69 3.66 2.72 3.65 2.74 3.64 2.77 3.63 2.79 3.62 2.81 3.61 2.84 3.6 2.86 3.62 2.88 3.63 2.85 3.65 2.83 3.66 2.81 3.67 2.78 3.68 2.76 3.69 2.73 3.69 2.71 3.7 2.69"/><polygon class="cls-8" points="3.62 2.88 3.6 2.86 3.59 2.86 3.62 2.88 3.62 2.88"/><polygon class="cls-8" points="3.62 2.88 3.59 2.86 3.58 2.89 3.56 2.92 3.53 2.95 3.51 2.98 3.49 3.01 3.46 3.03 3.44 3.06 3.41 3.08 3.44 3.09 3.46 3.07 3.49 3.05 3.51 3.02 3.54 2.99 3.56 2.97 3.58 2.94 3.6 2.91 3.62 2.88"/><path class="cls-9" d="M3.44,3.09l.27.38.06-.25a.07.07,0,0,1,0,0L4,3.11,3.93,3h0L3.7,2.69a.83.83,0,0,1-.08.19h0a.78.78,0,0,1-.18.22Zm-.63.57h0l-.07.17.19-.16s0,0,0,0L3,3.87l.27-.7H3.12a.18.18,0,0,1-.06-.07H3Z"/><path class="cls-10" d="M3.65,2.37l0,0H3.4l0,0,0,0,0,0,0,0,0,0,0,0,0,0,0,0,0,0h0V3h.1l0,0H3V2.66h0l0,0,0,0,0,0,0,0,0,0,0,0,0,0,0,0,0,0h.21Zm0,.57,0,0h0l0,0Zm-.44.31h0l0,0h0l0,0Zm-.07,0Zm0,0Zm0,0h0l0,0h0l0,0ZM3,3.07l0,0h0Z"/><path class="cls-11" d="M3.65,2.37a.25.25,0,0,0-.25,0,.72.72,0,0,0-.25.26h0A.72.72,0,0,0,3,3a.45.45,0,0,0,0,.06h0a.18.18,0,0,0,.06.07h.31a.76.76,0,0,0,.19-.22h0a.81.81,0,0,0,.09-.22h0v0h0a.53.53,0,0,0,0-.06A.25.25,0,0,0,3.65,2.37Z"/></g></g></svg>