<svg xmlns="http://www.w3.org/2000/svg" viewBox="0 0 4.78 6.39"><defs><style>.cls-1{fill:#f5f5f5;}.cls-1,.cls-2,.cls-3,.cls-4,.cls-5,.cls-6,.cls-7{fill-rule:evenodd;}.cls-2{fill:#e9e9eb;}.cls-3{fill:#dddee1;}.cls-4{fill:#d1d2d6;}.cls-5{fill:#d19917;}.cls-6{fill:#f0b11d;}.cls-7{fill:#ffcb05;}</style></defs><title>star</title><g id="Layer_2" data-name="Layer 2"><g id="_ÎÓÈ_1" data-name="—ÎÓÈ 1"><path class="cls-1" d="M4.08,4a1,1,0,0,1,0,2A3.73,3.73,0,0,1,.7,6a1,1,0,0,1,0-2A3.73,3.73,0,0,1,4.08,4Z"/><path class="cls-2" d="M3.78,4.21a.85.85,0,0,1,0,1.61A3.08,3.08,0,0,1,1,5.82.85.85,0,0,1,1,4.21,3.08,3.08,0,0,1,3.78,4.21Z"/><path class="cls-3" d="M3.49,4.38a.67.67,0,0,1,0,1.27,2.43,2.43,0,0,1-2.2,0,.67.67,0,0,1,0-1.27A2.43,2.43,0,0,1,3.49,4.38Z"/><path class="cls-4" d="M3.2,4.55a.49.49,0,0,1,0,.93,1.78,1.78,0,0,1-1.61,0,.49.49,0,0,1,0-.93A1.78,1.78,0,0,1,3.2,4.55Z"/><polygon class="cls-5" points="0.92 4.67 0.92 4.67 0.92 4.68 0.93 4.68 0.93 4.68 0.93 4.69 0.94 4.69 1.55 5.04 1.55 5.04 1.55 5.04 1.54 5.04 1.54 5.03 1.54 5.03 1.54 5.02 1.53 5.02 1.53 5.01 1.53 5.01 1.53 5 1.53 5 1.53 4.99 1.53 4.98 1.53 4.97 1.78 3.58 1.78 3.56 1.78 3.55 1.78 3.54 1.78 3.52 1.78 3.51 1.78 3.5 1.78 3.49 1.77 3.48 1.77 3.47 1.77 3.46 1.76 3.45 1.76 3.45 1.75 3.44 1.75 3.43 1.74 3.43 1.73 3.42 1.11 3.06 1.12 3.07 1.11 3.06 1.11 3.06 1.12 3.07 1.13 3.08 1.14 3.08 1.14 3.09 1.15 3.1 1.15 3.11 1.16 3.12 1.16 3.12 1.16 3.13 1.16 3.14 1.16 3.15 1.17 3.17 1.17 3.18 1.16 3.19 1.16 3.21 1.16 3.22 0.92 4.62 0.92 4.63 0.92 4.63 0.92 4.64 0.92 4.64 0.92 4.65 0.92 4.66 0.92 4.66 0.92 4.67"/><polygon class="cls-6" points="2.65 1 2.65 1 2.64 0.99 3.25 1.35 3.26 1.35 3.27 1.35 3.28 1.36 3.29 1.36 3.3 1.36 3.31 1.36 3.32 1.35 3.33 1.35 3.34 1.35 3.36 1.34 4.46 0.82 4.47 0.82 4.48 0.82 4.48 0.82 4.49 0.82 4.49 0.82 4.5 0.82 4.5 0.82 4.51 0.82 4.51 0.82 4.51 0.82 3.9 0.47 3.9 0.47 3.89 0.46 3.89 0.46 3.88 0.46 3.88 0.46 3.87 0.46 3.87 0.46 3.86 0.46 3.85 0.47 3.85 0.47 2.74 0.99 2.73 0.99 2.72 1 2.71 1 2.69 1 2.68 1 2.67 1 2.66 1 2.65 1"/><polygon class="cls-6" points="1.43 1.75 0.32 2.5 0.31 2.51 0.3 2.52 0.3 2.52 0.29 2.52 0.29 2.53 0.28 2.54 0.28 2.54 0.27 2.55 0.27 2.56 0.27 2.56 0.26 2.57 0.26 2.58 0.26 2.58 0.25 2.59 0.25 2.6 0.25 2.61 0.25 2.62 0.25 2.62 0.24 2.63 0.24 2.64 0.24 2.64 0.24 2.65 0.25 2.66 0.25 2.66 0.25 2.67 0.25 2.67 0.25 2.68 0.26 2.68 0.26 2.68 0.26 2.69 0.27 2.69 0.88 3.04 0.88 3.04 0.87 3.04 0.87 3.04 0.87 3.03 0.87 3.03 0.86 3.02 0.86 3.02 0.86 3.01 0.86 3.01 0.86 3 0.86 2.99 0.86 2.99 0.86 2.98 0.86 2.97 0.86 2.96 0.87 2.96 0.87 2.95 0.87 2.94 0.88 2.93 0.88 2.93 0.88 2.92 0.89 2.91 0.89 2.9 0.9 2.9 0.9 2.89 0.91 2.89 0.91 2.88 0.92 2.88 0.92 2.87 0.93 2.87 0.93 2.86 2.04 2.1 2.04 2.1 2.05 2.09 2.06 2.08 2.08 2.07 2.09 2.06 2.1 2.05 2.11 2.04 2.12 2.03 2.13 2.02 2.14 2 2.14 1.99 2.15 1.98 2.16 1.96 2.17 1.95 2.17 1.93 2.18 1.92 2.18 1.9 2.63 0.47 2.63 0.47 2.63 0.47 2.63 0.46 2.63 0.45 2.63 0.44 2.64 0.43 2.64 0.43 2.65 0.42 2.65 0.41 2.65 0.41 2.66 0.4 2.67 0.4 2.67 0.39 2.68 0.38 2.68 0.38 2.69 0.38 2.69 0.37 2.7 0.37 2.7 0.37 2.71 0.36 2.71 0.36 2.72 0.36 2.72 0.36 2.73 0.36 2.73 0.36 2.74 0.36 2.74 0.36 2.75 0.36 2.75 0.36 2.76 0.36 2.14 0.01 2.14 0 2.13 0 2.13 0 2.12 0 2.12 0 2.11 0 2.11 0 2.1 0 2.1 0.01 2.09 0.01 2.08 0.01 2.08 0.01 2.08 0.01 2.07 0.02 2.06 0.02 2.06 0.03 2.05 0.03 2.05 0.04 2.04 0.04 2.04 0.05 2.03 0.06 2.03 0.07 2.03 0.07 2.02 0.08 2.02 0.09 2.02 0.09 2.01 0.1 2.01 0.11 2.01 0.11 2.01 0.11 1.57 1.54 1.56 1.56 1.56 1.57 1.55 1.59 1.54 1.6 1.54 1.62 1.53 1.63 1.52 1.65 1.51 1.66 1.5 1.67 1.49 1.69 1.48 1.7 1.47 1.71 1.46 1.72 1.45 1.73 1.44 1.74 1.43 1.75 1.43 1.75"/><path class="cls-7" d="M2,2.1.93,2.86l0,0L.86,3A.11.11,0,0,0,.86,3l0,0h0l.83.37h0a.09.09,0,0,1,0,.06h0a.21.21,0,0,1,0,.1L1.53,5h0a.1.1,0,0,0,0,.05l0,0h0l0,0,1-1.21.09-.08h0a.15.15,0,0,1,.09,0l1,.1h0l0,0,0-.06a.11.11,0,0,0,0-.05L3.62,2.52a.24.24,0,0,1,0-.11.4.4,0,0,1,.05-.12L4.51,1l0-.06a.1.1,0,0,0,0-.05l0,0h0l-1.11.52a.13.13,0,0,1-.09,0,.09.09,0,0,1-.05,0h0L2.77.38l0,0h0l0,0,0,.06h0L2.18,1.9A.41.41,0,0,1,2.13,2,.35.35,0,0,1,2,2.1H2Z"/><polygon class="cls-5" points="2.09 2.06 2.1 2.05 2.11 2.04 2.12 2.03 2.13 2.02 2.14 2 2.14 1.99 2.15 1.98 2.16 1.96 2.17 1.95 2.17 1.93 2.18 1.92 2.18 1.9 2.63 0.47 2.63 0.47 2.63 0.47 2.63 0.46 2.63 0.45 2.63 0.44 2.64 0.43 2.64 0.43 2.65 0.42 2.65 0.41 2.65 0.41 2.66 0.4 2.67 0.4 2.67 0.39 2.68 0.38 2.68 0.38 2.69 0.38 2.69 0.37 2.7 0.37 2.7 0.37 2.71 0.36 2.71 0.36 2.72 0.36 2.72 0.36 2.73 0.36 2.73 0.36 2.74 0.36 2.74 0.36 2.75 0.36 2.75 0.36 2.76 0.36 2.14 0.01 2.14 0 2.13 0 2.13 0 2.12 0 2.12 0 2.11 0 2.11 0 2.1 0 2.1 0.01 2.09 0.01 2.08 0.01 2.08 0.01 2.08 0.01 2.07 0.02 2.06 0.02 2.06 0.03 2.05 0.03 2.05 0.04 2.04 0.04 2.04 0.05 2.03 0.06 2.03 0.07 2.03 0.07 2.02 0.08 2.02 0.09 2.02 0.09 2.01 0.1 2.01 0.11 2.01 0.11 2.01 0.11 1.57 1.54 1.56 1.56 1.56 1.57 1.55 1.59 1.54 1.6 1.54 1.62 1.53 1.63 1.52 1.65 1.51 1.66 1.5 1.67 1.49 1.69 1.48 1.7 1.47 1.71 2.09 2.06"/></g></g></svg>