<svg xmlns="http://www.w3.org/2000/svg" viewBox="0 0 74.5 83.34"><defs><style>.cls-1{fill:#fff;}.cls-2{fill:#009444;}</style></defs><title>book_green</title><g id="Layer_2" data-name="Layer 2"><g id="Layer_1-2" data-name="Layer 1"><path d="M3.9,66V20.66A17.39,17.39,0,0,1,5.64,13C6.17,12,7,10.93,7.45,9.8A6.42,6.42,0,0,1,8.74,7.15a12.13,12.13,0,0,0,1.7-1.89,2.51,2.51,0,0,1,.95-1,10.69,10.69,0,0,1,4.85-.87l5.67,0H61.65q3.19,0,6.37.24a9.38,9.38,0,0,1,3.35.58,4,4,0,0,1,2.41,2.65,34.28,34.28,0,0,1,.62,5c0,1.23.1,2.48.1,3.71V73.34a10,10,0,0,1-10,10H21.23A17.34,17.34,0,0,1,3.9,66Z"/><path d="M61.65,13.34H20.56v0a7.33,7.33,0,0,0-6.66,7.29V66a7.33,7.33,0,0,0,7.32,7.32H64.5V15.48H61.65ZM21.89,14.67H60.31v44H21.89Zm41.28,2.14V72H21.23a6,6,0,1,1,0-12H61.65V16.81Z"/><path class="cls-1" d="M0,62.68V17.32A17.4,17.4,0,0,1,1.74,9.71c.53-1.09,1.4-2.11,1.81-3.24A6.42,6.42,0,0,1,4.83,3.82a12.17,12.17,0,0,0,1.7-1.89,2.5,2.5,0,0,1,.95-1A10.69,10.69,0,0,1,12.32,0L18,0H57.74q3.19,0,6.37.24a9.39,9.39,0,0,1,3.35.58,4,4,0,0,1,2.41,2.65,34.42,34.42,0,0,1,.62,5c0,1.23.1,2.48.1,3.71V70a10,10,0,0,1-10,10H17.32A17.34,17.34,0,0,1,0,62.68Z"/><path class="cls-2" d="M57.74,10H16.66v0A7.33,7.33,0,0,0,10,17.32V62.68A7.33,7.33,0,0,0,17.32,70H60.6V12.14H57.74ZM18,11.33H56.41v44H18Zm41.28,2.14V68.67H17.32a6,6,0,1,1,0-12H57.74V13.48Z"/></g></g></svg>